<svg width="202" height="78" viewBox="0 0 202 78" fill="none" xmlns="http://www.w3.org/2000/svg">
<path d="M85.2877 32.202L84.2954 35.0042L98.0447 39.8731L99.4079 43.5573L194.457 77.2161L201.184 74.7959L197.464 68.7245L102.415 35.0657L99.037 37.0709L85.2877 32.202Z" fill="white"/>
<path d="M85.6235 31.2538L15.9286 6.57353L14.2496 11.3147L83.9445 35.9949L84.2954 35.0042L85.2877 32.202L85.6235 31.2538Z" fill="white"/>
<path d="M14.2496 11.3147L15.9286 6.57353L13.7554 3.6697L6.16961 0.983422L3.12746 2.04041L1.44853 6.78156L3.14754 9.51749L10.7334 12.2038L14.2496 11.3147Z" fill="white"/>
<path d="M15.9286 6.57353L85.6235 31.2538M15.9286 6.57353L14.2496 11.3147M15.9286 6.57353L13.7554 3.6697L6.16961 0.983421L3.12746 2.04041L1.44853 6.78157L3.14754 9.51749L10.7334 12.2038L14.2496 11.3147M85.6235 31.2538L83.9446 35.9949M85.6235 31.2538L85.2877 32.202M83.9446 35.9949L14.2496 11.3147M83.9446 35.9949L84.2954 35.0043M85.2877 32.202L99.037 37.0709L102.415 35.0657L197.464 68.7245L201.184 74.7959L194.457 77.2161L99.4079 43.5573L98.0447 39.8731L84.2954 35.0043M85.2877 32.202L84.2954 35.0043" stroke="white" stroke-width="1.00593"/>
</svg>
