<svg width="2940" height="230" viewBox="0 0 2940 230" fill="none" xmlns="http://www.w3.org/2000/svg">
<g clip-path="url(#clip0_1_3)">
<g filter="url(#filter0_d_1_3)">
<path d="M24.5013 15.2885L0 0V229.687H24.5013H147.008H294.016H441.024H588.032H735.04H882.048H1029.06H1176.06H1323.07H1445.58L1494.42 230H1616.93H1763.94H1910.94H2057.95H2204.96H2351.97H2498.98H2645.98H2792.99H2915.5H2940V0.312942L2915.5 15.6015C2891 31.1771 2841.99 61.3236 2792.99 69.219C2743.99 77.1145 2694.99 61.3236 2645.98 61.5389C2596.98 61.3236 2547.98 77.1145 2498.98 76.8992C2449.97 77.1145 2400.97 61.3236 2351.97 73.0233C2302.97 84.2923 2253.96 123.052 2204.96 138.125C2155.96 153.198 2106.95 146.021 2057.95 141.929C2008.95 138.125 1959.95 138.125 1910.94 122.837C1861.94 107.261 1812.94 77.1145 1763.94 69.219C1714.93 61.3236 1665.93 77.1145 1616.93 80.7034C1567.92 84.2923 1518.92 77.1146 1494.42 73.0233L1481.44 70.8268C1473.91 69.5546 1466.24 69.5027 1458.7 70.673L1445.58 72.7103C1421.08 76.8016 1372.08 83.9793 1323.07 80.3905C1274.07 76.8016 1225.07 61.0106 1176.06 68.9061C1127.06 76.8016 1078.06 106.948 1029.06 122.524C980.054 137.812 931.051 137.812 882.048 141.616C833.046 145.708 784.043 152.885 735.04 137.812C686.038 122.739 637.035 83.9793 588.032 72.7103C539.03 61.0106 490.027 76.8016 441.024 76.5863C392.021 76.8016 343.019 61.0106 294.016 61.226C245.013 61.0106 196.011 76.8016 147.008 68.9061C98.0054 61.0106 49.0027 30.8642 24.5013 15.2885Z" fill="#7A0BC0"/>
</g>
</g>
<defs>
<filter id="filter0_d_1_3" x="-20" y="-32" width="2980" height="270" filterUnits="userSpaceOnUse" color-interpolation-filters="sRGB">
<feFlood flood-opacity="0" result="BackgroundImageFix"/>
<feColorMatrix in="SourceAlpha" type="matrix" values="0 0 0 0 0 0 0 0 0 0 0 0 0 0 0 0 0 0 127 0" result="hardAlpha"/>
<feOffset dy="-12"/>
<feGaussianBlur stdDeviation="10"/>
<feComposite in2="hardAlpha" operator="out"/>
<feColorMatrix type="matrix" values="0 0 0 0 0 0 0 0 0 0 0 0 0 0 0 0 0 0 0.25 0"/>
<feBlend mode="normal" in2="BackgroundImageFix" result="effect1_dropShadow_1_3"/>
<feBlend mode="normal" in="SourceGraphic" in2="effect1_dropShadow_1_3" result="shape"/>
</filter>
<clipPath id="clip0_1_3">
<rect width="2940" height="230" fill="white"/>
</clipPath>
</defs>
</svg>
